<svg width="233" height="21" viewBox="0 0 233 21" fill="none" xmlns="http://www.w3.org/2000/svg">
<path d="M16.828 2.892H10.22V20H7.056V2.892H0.42V0.119999H16.828V2.892ZM22.7848 20.28C21.6461 20.28 20.6101 20.084 19.6768 19.692C18.7621 19.2813 17.9688 18.7307 17.2968 18.04C16.6248 17.3307 16.1021 16.528 15.7288 15.632C15.3741 14.7173 15.1968 13.7467 15.1968 12.72C15.1968 11.3387 15.5141 10.0787 16.1488 8.94C16.7834 7.78267 17.6701 6.85867 18.8088 6.168C19.9474 5.45867 21.2821 5.104 22.8128 5.104C24.3434 5.104 25.6594 5.45867 26.7608 6.168C27.8808 6.85867 28.7488 7.77333 29.3648 8.912C29.9808 10.0507 30.2888 11.2733 30.2888 12.58C30.2888 12.804 30.2794 13.0187 30.2608 13.224C30.2421 13.4107 30.2234 13.5693 30.2048 13.7H18.4728C18.5288 14.5587 18.7621 15.3147 19.1728 15.968C19.6021 16.6027 20.1434 17.1067 20.7968 17.48C21.4501 17.8347 22.1501 18.012 22.8968 18.012C23.7181 18.012 24.4928 17.8067 25.2208 17.396C25.9674 16.9853 26.4714 16.444 26.7328 15.772L29.3648 16.528C29.0474 17.2373 28.5621 17.8813 27.9088 18.46C27.2741 19.02 26.5181 19.468 25.6408 19.804C24.7634 20.1213 23.8114 20.28 22.7848 20.28ZM18.3888 11.656H27.2368C27.1808 10.816 26.9381 10.0787 26.5088 9.444C26.0981 8.79067 25.5661 8.28667 24.9128 7.932C24.2781 7.55867 23.5688 7.372 22.7848 7.372C22.0194 7.372 21.3101 7.55867 20.6568 7.932C20.0221 8.28667 19.4994 8.79067 19.0888 9.444C18.6781 10.0787 18.4448 10.816 18.3888 11.656ZM41.0331 8.016C39.8385 8.03467 38.7745 8.30533 37.8411 8.828C36.9265 9.35067 36.2731 10.088 35.8811 11.04V20H32.8011V5.356H35.6571V8.632C36.1611 7.624 36.8238 6.82133 37.6451 6.224C38.4665 5.608 39.3345 5.272 40.2491 5.216C40.4358 5.216 40.5851 5.216 40.6971 5.216C40.8278 5.216 40.9398 5.22533 41.0331 5.244V8.016ZM51.5058 8.016C50.3111 8.03467 49.2471 8.30533 48.3138 8.828C47.3991 9.35067 46.7458 10.088 46.3538 11.04V20H43.2738V5.356H46.1298V8.632C46.6338 7.624 47.2964 6.82133 48.1178 6.224C48.9391 5.608 49.8071 5.272 50.7218 5.216C50.9084 5.216 51.0578 5.216 51.1698 5.216C51.3004 5.216 51.4124 5.22533 51.5058 5.244V8.016ZM52.6551 15.716C52.6551 14.7827 52.9164 13.9707 53.4391 13.28C53.9804 12.5707 54.7178 12.0293 55.6511 11.656C56.5844 11.264 57.6671 11.068 58.8991 11.068C59.5524 11.068 60.2151 11.1147 60.8871 11.208C61.5778 11.3013 62.1844 11.4507 62.7071 11.656V10.732C62.7071 9.70533 62.3991 8.90267 61.7831 8.324C61.1671 7.74533 60.2804 7.456 59.1231 7.456C58.3018 7.456 57.5271 7.60533 56.7991 7.904C56.0711 8.184 55.2964 8.58533 54.4751 9.108L53.4391 7.036C54.4098 6.38267 55.3804 5.89733 56.3511 5.58C57.3404 5.26267 58.3764 5.104 59.4591 5.104C61.4191 5.104 62.9591 5.62667 64.0791 6.672C65.2178 7.69867 65.7871 9.164 65.7871 11.068V16.528C65.7871 16.8827 65.8431 17.1347 65.9551 17.284C66.0858 17.4333 66.3004 17.5173 66.5991 17.536V20C66.3191 20.056 66.0671 20.0933 65.8431 20.112C65.6191 20.1307 65.4324 20.14 65.2831 20.14C64.6298 20.14 64.1351 19.9813 63.7991 19.664C63.4631 19.3467 63.2671 18.9733 63.2111 18.544L63.1271 17.704C62.4924 18.5253 61.6804 19.16 60.6911 19.608C59.7018 20.056 58.7031 20.28 57.6951 20.28C56.7244 20.28 55.8564 20.084 55.0911 19.692C54.3258 19.2813 53.7284 18.7307 53.2991 18.04C52.8698 17.3493 52.6551 16.5747 52.6551 15.716ZM61.9791 16.612C62.2031 16.3693 62.3804 16.1267 62.5111 15.884C62.6418 15.6413 62.7071 15.4267 62.7071 15.24V13.56C62.1844 13.3547 61.6338 13.2053 61.0551 13.112C60.4764 13 59.9071 12.944 59.3471 12.944C58.2271 12.944 57.3124 13.168 56.6031 13.616C55.9124 14.064 55.5671 14.68 55.5671 15.464C55.5671 15.8933 55.6791 16.304 55.9031 16.696C56.1458 17.088 56.4818 17.4053 56.9111 17.648C57.3591 17.8907 57.9098 18.012 58.5631 18.012C59.2351 18.012 59.8791 17.8813 60.4951 17.62C61.1111 17.3587 61.6058 17.0227 61.9791 16.612ZM76.8338 20V0.119999H79.9698V20H76.8338ZM97.2027 20H94.1227V11.796C94.1227 10.4333 93.8987 9.43467 93.4507 8.8C93.0213 8.16533 92.3773 7.848 91.5187 7.848C90.9213 7.848 90.324 7.99733 89.7267 8.296C89.148 8.59467 88.6253 9.00533 88.1587 9.528C87.692 10.032 87.356 10.62 87.1507 11.292V20H84.0707V5.356H86.8707V8.296C87.244 7.64267 87.7293 7.08267 88.3267 6.616C88.9427 6.13067 89.6333 5.75733 90.3987 5.496C91.164 5.23467 91.976 5.104 92.8347 5.104C93.712 5.104 94.4307 5.26267 94.9907 5.58C95.5693 5.89733 96.0173 6.336 96.3347 6.896C96.6707 7.43733 96.8947 8.072 97.0067 8.8C97.1373 9.50933 97.2027 10.2653 97.2027 11.068V20ZM105.986 20.28C104.754 20.28 103.587 20.084 102.486 19.692C101.384 19.2813 100.442 18.6747 99.6577 17.872L100.806 15.8C101.646 16.5467 102.486 17.088 103.326 17.424C104.184 17.76 105.034 17.928 105.874 17.928C106.732 17.928 107.432 17.7693 107.974 17.452C108.515 17.116 108.786 16.6307 108.786 15.996C108.786 15.5293 108.646 15.184 108.366 14.96C108.086 14.736 107.675 14.54 107.134 14.372C106.611 14.204 105.976 14.0173 105.23 13.812C104.184 13.4947 103.307 13.168 102.598 12.832C101.888 12.4773 101.356 12.048 101.002 11.544C100.647 11.04 100.47 10.396 100.47 9.612C100.47 8.66 100.712 7.848 101.198 7.176C101.683 6.504 102.355 5.99067 103.214 5.636C104.091 5.28133 105.099 5.104 106.238 5.104C107.302 5.104 108.282 5.272 109.178 5.608C110.092 5.92533 110.895 6.42933 111.586 7.12L110.27 9.164C109.616 8.56667 108.944 8.128 108.254 7.848C107.582 7.568 106.854 7.428 106.07 7.428C105.622 7.428 105.192 7.484 104.782 7.596C104.371 7.68933 104.026 7.876 103.746 8.156C103.484 8.41733 103.354 8.79067 103.354 9.276C103.354 9.668 103.466 9.98533 103.69 10.228C103.914 10.4707 104.25 10.676 104.698 10.844C105.146 11.012 105.696 11.1987 106.35 11.404C107.488 11.74 108.459 12.076 109.262 12.412C110.064 12.7293 110.68 13.1493 111.11 13.672C111.558 14.176 111.782 14.876 111.782 15.772C111.782 17.1907 111.25 18.3013 110.186 19.104C109.14 19.888 107.74 20.28 105.986 20.28ZM122.652 19.244C122.391 19.3747 122.064 19.5147 121.672 19.664C121.28 19.8133 120.832 19.944 120.328 20.056C119.843 20.168 119.339 20.224 118.816 20.224C118.182 20.224 117.594 20.112 117.052 19.888C116.511 19.664 116.072 19.3093 115.736 18.824C115.419 18.32 115.26 17.676 115.26 16.892V7.736H113.328V5.356H115.26V0.539999H118.34V5.356H121.532V7.736H118.34V15.912C118.378 16.416 118.536 16.7893 118.816 17.032C119.115 17.2747 119.479 17.396 119.908 17.396C120.338 17.396 120.748 17.3213 121.14 17.172C121.532 17.0227 121.822 16.9013 122.008 16.808L122.652 19.244ZM133.018 8.016C131.823 8.03467 130.759 8.30533 129.826 8.828C128.911 9.35067 128.258 10.088 127.866 11.04V20H124.785V5.356H127.642V8.632C128.146 7.624 128.808 6.82133 129.63 6.224C130.451 5.608 131.319 5.272 132.234 5.216C132.42 5.216 132.57 5.216 132.682 5.216C132.812 5.216 132.924 5.22533 133.018 5.244V8.016ZM135.118 14.316V5.356H138.198V13.7C138.198 15.0067 138.431 15.996 138.898 16.668C139.383 17.3213 140.083 17.648 140.998 17.648C141.577 17.648 142.137 17.5267 142.678 17.284C143.238 17.0413 143.742 16.6867 144.19 16.22C144.657 15.7347 145.03 15.156 145.31 14.484V5.356H148.39V16.528C148.39 16.8827 148.455 17.1347 148.586 17.284C148.717 17.4333 148.931 17.5173 149.23 17.536V20C148.913 20.056 148.651 20.0933 148.446 20.112C148.241 20.1307 148.045 20.14 147.858 20.14C147.298 20.14 146.831 19.9907 146.458 19.692C146.085 19.3747 145.87 18.9733 145.814 18.488L145.758 17.032C145.105 18.096 144.255 18.908 143.21 19.468C142.165 20.0093 141.017 20.28 139.766 20.28C138.235 20.28 137.078 19.776 136.294 18.768C135.51 17.76 135.118 16.276 135.118 14.316ZM174.721 20H171.641V11.796C171.641 10.4333 171.417 9.43467 170.969 8.8C170.521 8.16533 169.867 7.848 169.009 7.848C168.15 7.848 167.347 8.17467 166.601 8.828C165.873 9.46267 165.359 10.2933 165.061 11.32V20H161.981V11.796C161.981 10.4333 161.757 9.43467 161.309 8.8C160.861 8.16533 160.217 7.848 159.377 7.848C158.518 7.848 157.715 8.16533 156.969 8.8C156.241 9.43467 155.718 10.2653 155.401 11.292V20H152.321V5.356H155.121V8.296C155.699 7.26933 156.455 6.48533 157.389 5.944C158.341 5.384 159.423 5.104 160.637 5.104C161.85 5.104 162.802 5.42133 163.493 6.056C164.202 6.69067 164.641 7.484 164.809 8.436C165.443 7.35333 166.218 6.532 167.133 5.972C168.066 5.39333 169.13 5.104 170.325 5.104C171.183 5.104 171.902 5.26267 172.481 5.58C173.059 5.89733 173.507 6.336 173.825 6.896C174.142 7.43733 174.366 8.072 174.497 8.8C174.646 9.50933 174.721 10.2653 174.721 11.068V20ZM184.906 20.28C183.767 20.28 182.731 20.084 181.798 19.692C180.883 19.2813 180.09 18.7307 179.418 18.04C178.746 17.3307 178.223 16.528 177.85 15.632C177.495 14.7173 177.318 13.7467 177.318 12.72C177.318 11.3387 177.635 10.0787 178.27 8.94C178.905 7.78267 179.791 6.85867 180.93 6.168C182.069 5.45867 183.403 5.104 184.934 5.104C186.465 5.104 187.781 5.45867 188.882 6.168C190.002 6.85867 190.87 7.77333 191.486 8.912C192.102 10.0507 192.41 11.2733 192.41 12.58C192.41 12.804 192.401 13.0187 192.382 13.224C192.363 13.4107 192.345 13.5693 192.326 13.7H180.594C180.65 14.5587 180.883 15.3147 181.294 15.968C181.723 16.6027 182.265 17.1067 182.918 17.48C183.571 17.8347 184.271 18.012 185.018 18.012C185.839 18.012 186.614 17.8067 187.342 17.396C188.089 16.9853 188.593 16.444 188.854 15.772L191.486 16.528C191.169 17.2373 190.683 17.8813 190.03 18.46C189.395 19.02 188.639 19.468 187.762 19.804C186.885 20.1213 185.933 20.28 184.906 20.28ZM180.51 11.656H189.358C189.302 10.816 189.059 10.0787 188.63 9.444C188.219 8.79067 187.687 8.28667 187.034 7.932C186.399 7.55867 185.69 7.372 184.906 7.372C184.141 7.372 183.431 7.55867 182.778 7.932C182.143 8.28667 181.621 8.79067 181.21 9.444C180.799 10.0787 180.566 10.816 180.51 11.656ZM208.054 20H204.974V11.796C204.974 10.4333 204.75 9.43467 204.302 8.8C203.873 8.16533 203.229 7.848 202.37 7.848C201.773 7.848 201.176 7.99733 200.578 8.296C200 8.59467 199.477 9.00533 199.01 9.528C198.544 10.032 198.208 10.62 198.002 11.292V20H194.922V5.356H197.722V8.296C198.096 7.64267 198.581 7.08267 199.178 6.616C199.794 6.13067 200.485 5.75733 201.25 5.496C202.016 5.23467 202.828 5.104 203.686 5.104C204.564 5.104 205.282 5.26267 205.842 5.58C206.421 5.89733 206.869 6.336 207.186 6.896C207.522 7.43733 207.746 8.072 207.858 8.8C207.989 9.50933 208.054 10.2653 208.054 11.068V20ZM219.668 19.244C219.407 19.3747 219.08 19.5147 218.688 19.664C218.296 19.8133 217.848 19.944 217.344 20.056C216.859 20.168 216.355 20.224 215.832 20.224C215.197 20.224 214.609 20.112 214.068 19.888C213.527 19.664 213.088 19.3093 212.752 18.824C212.435 18.32 212.276 17.676 212.276 16.892V7.736H210.344V5.356H212.276V0.539999H215.356V5.356H218.548V7.736H215.356V15.912C215.393 16.416 215.552 16.7893 215.832 17.032C216.131 17.2747 216.495 17.396 216.924 17.396C217.353 17.396 217.764 17.3213 218.156 17.172C218.548 17.0227 218.837 16.9013 219.024 16.808L219.668 19.244ZM227.009 20.28C225.777 20.28 224.61 20.084 223.509 19.692C222.408 19.2813 221.465 18.6747 220.681 17.872L221.829 15.8C222.669 16.5467 223.509 17.088 224.349 17.424C225.208 17.76 226.057 17.928 226.897 17.928C227.756 17.928 228.456 17.7693 228.997 17.452C229.538 17.116 229.809 16.6307 229.809 15.996C229.809 15.5293 229.669 15.184 229.389 14.96C229.109 14.736 228.698 14.54 228.157 14.372C227.634 14.204 227 14.0173 226.253 13.812C225.208 13.4947 224.33 13.168 223.621 12.832C222.912 12.4773 222.38 12.048 222.025 11.544C221.67 11.04 221.493 10.396 221.493 9.612C221.493 8.66 221.736 7.848 222.221 7.176C222.706 6.504 223.378 5.99067 224.237 5.636C225.114 5.28133 226.122 5.104 227.261 5.104C228.325 5.104 229.305 5.272 230.201 5.608C231.116 5.92533 231.918 6.42933 232.609 7.12L231.293 9.164C230.64 8.56667 229.968 8.128 229.277 7.848C228.605 7.568 227.877 7.428 227.093 7.428C226.645 7.428 226.216 7.484 225.805 7.596C225.394 7.68933 225.049 7.876 224.769 8.156C224.508 8.41733 224.377 8.79067 224.377 9.276C224.377 9.668 224.489 9.98533 224.713 10.228C224.937 10.4707 225.273 10.676 225.721 10.844C226.169 11.012 226.72 11.1987 227.373 11.404C228.512 11.74 229.482 12.076 230.285 12.412C231.088 12.7293 231.704 13.1493 232.133 13.672C232.581 14.176 232.805 14.876 232.805 15.772C232.805 17.1907 232.273 18.3013 231.209 19.104C230.164 19.888 228.764 20.28 227.009 20.28Z" fill="black"/>
</svg>
